<?xml version="1.0" encoding="UTF-8"?>
<svg xmlns="http://www.w3.org/2000/svg" viewBox="0 0 1024 1024" fill="none">
  <path
    d="M512 748
       C 512 748, 188 500, 188 332
       C 188 210, 308 168, 512 318
       C 716 168, 836 210, 836 332
       C 836 500, 512 748, 512 748 Z"
    stroke="#FFFFFF"
    stroke-width="30"
    stroke-linecap="round"
    stroke-linejoin="round"
  />
  <g stroke="#FFFFFF" stroke-width="26" stroke-linecap="round">
    <circle cx="512" cy="612" r="118" />
    <circle cx="512" cy="612" r="42" />
    <line x1="512" y1="494" x2="512" y2="570" />
    <line x1="394" y1="612" x2="470" y2="612" />
    <line x1="554" y1="612" x2="630" y2="612" />
    <line x1="512" y1="654" x2="512" y2="730" />
  </g>
  <path
    d="M512 612
       C 512 560, 470 520, 430 470
       C 390 420, 400 360, 470 310
       C 540 260, 620 250, 700 290"
    stroke="#FFFFFF"
    stroke-width="34"
    stroke-linecap="round"
    stroke-linejoin="round"
  />
  <path
    d="M512 612
       C 512 560, 470 520, 430 470
       C 390 420, 400 360, 470 310
       C 540 260, 620 250, 700 290"
    stroke="#7EC8E8"
    stroke-width="12"
    stroke-linecap="round"
    stroke-linejoin="round"
    opacity="0.55"
  />
</svg>
